<svg version="1.2" xmlns="http://www.w3.org/2000/svg" viewBox="0 0 1147 269" width="1147" height="269">
	<title>WhatsApp-ColorWithName2-Logo</title>
	<defs>
		<linearGradient id="g1" x2="1" gradientUnits="userSpaceOnUse" gradientTransform="matrix(0,-255.365,254.22,0,133.67,265.948)">
			<stop offset="0" stop-color="#20b038"/>
			<stop offset="1" stop-color="#60d66a"/>
		</linearGradient>
		<linearGradient id="g2" x2="1" gradientUnits="userSpaceOnUse" gradientTransform="matrix(0,-264.523,263.343,0,133.671,270.525)">
			<stop offset="0" stop-color="#f9f9f9"/>
			<stop offset="1" stop-color="#ffffff"/>
		</linearGradient>
	</defs>
	<style>
		.s0 { fill: #ffffff } 
		.s1 { fill: url(#g1) } 
		.s2 { fill: url(#g2) } 
	</style>
	<path fill-rule="evenodd" class="s0" d="m1145.2 156.7q0 9.3-2.5 17.9-2.5 8.6-7.6 15.2-5.1 6.6-12.7 10.6-7.6 3.9-17.8 3.9-8.6 0-15.9-3.5-7.2-3.4-11.9-10.3h-0.3v43.9h-25.4v-124.9h24.1v11.8h0.4q4.6-7.5 11.8-11 7.1-3.4 15.7-3.3 10.9-0.1 18.8 4.1 7.9 4.1 13.1 10.9 5.2 6.8 7.7 15.8 2.5 9.1 2.5 18.9zm-25.4-0.7q0-1.4-0.1-2.7-0.1-1.4-0.2-2.8-0.2-1.4-0.4-2.7-0.2-1.4-0.5-2.7-1.1-5.4-3.8-9.6-2.7-4.2-6.9-6.8-4.2-2.6-10.3-2.6-6.3 0-10.5 2.6-4.2 2.6-6.8 6.7-2.6 4.1-3.7 9.5-1 5.4-1 11.1 0 1.4 0 2.7 0.1 1.4 0.3 2.8 0.1 1.4 0.3 2.7 0.2 1.4 0.5 2.7 1.2 5.4 3.8 9.4 2.6 4 6.9 6.5 4.3 2.6 10.4 2.6 6.2 0 10.4-2.6 1.1-0.6 2-1.3 1-0.7 1.8-1.5 0.9-0.9 1.6-1.8 0.8-0.9 1.4-1.9 2.6-4 3.7-9.4 1.1-5.4 1.1-10.9zm-78.4-18.2q2.5 9.1 2.5 18.9 0 9.3-2.5 17.9-2.5 8.6-7.6 15.2-5.1 6.6-12.7 10.6-7.6 3.9-17.8 3.9-8.6 0-15.8-3.5-7.3-3.4-12-10.3h-0.3v43.9h-25.4v-124.9h24.1v11.8h0.4q4.6-7.5 11.8-11 7.2-3.4 15.8-3.3 10.9-0.1 18.7 4.1 7.9 4.1 13.1 10.9 5.2 6.8 7.7 15.8zm-23.5 26.4q0.2-1.4 0.3-2.7 0.2-1.4 0.2-2.8 0.1-1.3 0.1-2.7 0-1.4-0.1-2.7-0.1-1.4-0.2-2.8-0.1-1.4-0.4-2.7-0.2-1.4-0.5-2.7-1.1-5.4-3.8-9.6-0.7-1-1.4-2-0.8-0.9-1.7-1.8-0.8-0.9-1.8-1.6-1-0.8-2-1.4-4.2-2.6-10.3-2.6-6.3 0-10.5 2.6-4.2 2.6-6.8 6.7-2.6 4.1-3.6 9.5-1.1 5.4-1.1 11.1 0 1.4 0.1 2.7 0 1.4 0.2 2.8 0.1 1.4 0.4 2.7 0.2 1.4 0.5 2.7 1.1 5.4 3.7 9.4 2.6 4 6.9 6.5 4.3 2.5 10.4 2.6 6.2-0.1 10.4-2.6 4.3-2.5 6.9-6.5 2.5-4 3.6-9.4 0.3-1.3 0.5-2.7zm-119.8-90l47.7 127.8h-29.1l-9.7-28.5h-47.8l-10 28.5h-28.3l48.4-127.8zm1.6 78.4l-16.1-46.9h-0.4l-16.6 46.9zm-78.4 19.7q0 9.1-3.7 15.3-3.7 6.2-9.6 9.9-5.9 3.8-13.5 5.3-7.6 1.5-15.5 1.5-1.9 0-3.9-0.1-2-0.1-4-0.3-1.9-0.2-3.9-0.5-2-0.3-3.9-0.7-7.7-1.6-13.7-5.4-6-3.7-9.8-9.9-3.9-6.2-4.2-15.5h24.1q0 4.1 1.7 7.1 1.7 3 4.4 4.8 2.7 1.9 6.2 2.8 3.5 0.9 7.2 0.9 2.7 0 5.7-0.6 2.9-0.6 5.3-2 0.6-0.3 1.2-0.7 0.5-0.4 1-0.9 0.6-0.4 1-0.9 0.5-0.5 0.9-1.1 1.6-2.2 1.6-5.6 0-5.7-7.6-8.6-7.6-2.9-21.2-5.7-1.4-0.3-2.8-0.7-1.3-0.3-2.7-0.7-1.3-0.4-2.7-0.8-1.3-0.4-2.7-0.8-5.2-1.7-9.4-4.5-4.1-2.7-6.6-6.9-2.5-4.3-2.5-10.3 0-9 3.5-14.7 3.5-5.7 9.2-9.1 5.7-3.3 12.9-4.6 7.1-1.3 14.7-1.3 7.5-0.1 14.6 1.4 7 1.4 12.6 4.8 5.5 3.4 9.2 9 3.7 5.7 4.4 14.3h-24.2q-0.5-7.4-5.5-10-5-2.5-11.8-2.5-2.2 0-4.7 0.2-2.5 0.3-4.6 1.2-0.5 0.2-0.9 0.5-0.5 0.2-1 0.6-0.4 0.3-0.8 0.7-0.4 0.4-0.7 0.8-1.5 1.7-1.5 4.5 0 3.4 2.5 5.6 2.5 2.1 6.6 3.5 4 1.3 9.2 2.4 1.3 0.3 2.6 0.6 1.3 0.2 2.7 0.5 1.3 0.3 2.6 0.6 1.3 0.3 2.6 0.6 1.4 0.3 2.8 0.7 1.3 0.3 2.7 0.7 1.3 0.4 2.7 0.8 1.3 0.4 2.7 0.9 5.2 1.8 9.4 4.7 1 0.7 1.9 1.6 0.9 0.8 1.8 1.7 0.8 0.9 1.5 2 0.8 1 1.4 2.1 2.5 4.3 2.5 10.8zm-107.6-62.8h18.6v17h-18.6v45.8q0 6.4 2.2 8.6 2.1 2.1 8.6 2.1 0.5 0 1 0 0.5 0 1 0 0.5 0 1.1-0.1 0.5 0 1-0.1 2-0.1 3.7-0.5v19.7q-3.2 0.5-7.1 0.7-3.9 0.2-7.7 0.2-5.9 0-11.2-0.8-5.3-0.8-9.3-3.1-4-2.4-6.3-6.7-2.4-4.3-2.4-11.3v-54.5h-15.4v-17h15.4v-27.8h25.4zm-46.7 84q0.8 5.7 2.5 8.6h-25.7q-0.2-0.6-0.4-1.1-0.1-0.6-0.3-1.1-0.1-0.6-0.3-1.1-0.1-0.6-0.2-1.1-0.4-2.3-0.6-4.6-6.1 6.3-14.3 8.8-8.3 2.5-16.9 2.5-6.6 0-12.3-1.6-5.7-1.6-10-5-4.3-3.4-6.7-8.6-2.4-5.2-2.4-12.4 0-7.9 2.7-13 2.8-5.1 7.2-8.1 4.4-3 10-4.6 5.6-1.5 11.4-2.4 5.7-0.9 11.2-1.4 5.6-0.5 9.9-1.6 4.3-1.1 6.8-3.2 2.5-2 2.3-6 0-4.1-1.3-6.5-1.4-2.4-3.6-3.7-2.3-1.4-5.2-1.8-3-0.5-6.4-0.5-7.5 0-11.8 3.2-4.3 3.3-5 10.8h-25.4q0.5-9 4.5-14.9 1-1.4 2.1-2.8 1.1-1.3 2.4-2.5 1.2-1.2 2.6-2.2 1.4-1.1 2.9-2 6.1-3.5 13.7-5.1 7.6-1.5 15.3-1.5 1.8 0 3.5 0.1 1.8 0 3.6 0.2 1.7 0.1 3.5 0.3 1.8 0.2 3.5 0.4 7.2 1 13.1 3.8 5.9 2.9 9.7 8 3.7 5.1 3.7 13.5v48.2q0 6.2 0.7 12zm-26.1-36.7q-1.6 1.4-4 2.2-0.7 0.2-1.3 0.4-0.6 0.2-1.3 0.4-0.6 0.1-1.3 0.3-0.6 0.1-1.3 0.3-0.7 0.1-1.5 0.2-0.7 0.1-1.4 0.3-0.7 0.1-1.5 0.2-0.7 0.1-1.4 0.1-3.1 0.4-6.1 0.9-0.7 0.2-1.4 0.3-0.7 0.2-1.4 0.4-0.8 0.1-1.5 0.3-0.7 0.2-1.3 0.5-2.8 0.9-4.9 2.4-0.5 0.4-1 0.8-0.4 0.4-0.8 0.9-0.5 0.5-0.8 1-0.4 0.6-0.7 1.1-1.2 2.4-1.2 5.9 0 3.4 1.2 5.8 1.3 2.3 3.4 3.6 2.2 1.4 5 1.9 2.9 0.6 5.9 0.6 7.5 0 11.7-2.6 4.1-2.5 6-5.9 2-3.5 2.5-7.1 0.4-3.6 0.4-5.8zm-74-27.3q1.5 7.1 1.5 15.7v56.9h-25.4v-52.2q0-11.5-3.6-17.1-3.5-5.7-12.7-5.7-10.3 0-15 6.2-4.6 6.2-4.6 20.3v48.5h-25.5v-127.8h25.5v48.2h0.5q4.8-8.1 12.3-11.7 7.6-3.7 14.7-3.7 10.2 0 16.8 2.8 6.5 2.7 10.2 7.7 3.8 4.9 5.3 11.9zm-118.5-55.2h27.5l-34.3 127.8h-27.9l-21.7-87h-0.4l-21.2 87h-28.5l-33.8-127.8h28.1l20.2 87h0.3l22.2-87h26.3l21.9 88.1h0.3zm-446.4 196.3l18.6-67.9c-11.4-19.9-17.5-42.4-17.5-65.5 0.1-72.3 58.9-131.1 131.2-131.1 35 0 68 13.7 92.7 38.4 24.8 24.8 38.4 57.8 38.4 92.8 0 72.3-58.9 131.1-131.1 131.1q0 0 0 0h-0.1c-21.9 0-43.5-5.6-62.7-16zm72.8-42l4 2.4c16.7 9.9 35.9 15.2 55.4 15.2h0.1c60 0 108.9-48.9 109-108.9 0-29.2-11.4-56.5-31.9-77.1-20.6-20.6-48-32-77.1-32-60.1 0-109 48.9-109 109 0 20.5 5.7 40.6 16.6 57.9l2.6 4.2-11 40.2z"/>
	<path fill-rule="evenodd" class="s1" d="m7.6 137.1c0 22.3 5.8 44.1 16.9 63.3l-17.9 65.5 67.1-17.5q6.9 3.7 14.2 6.6 7.4 2.9 15 4.8 7.7 2 15.5 3 7.9 1 15.7 1h0.1c69.8 0 126.6-56.8 126.6-126.6 0-33.8-13.2-65.6-37.1-89.5-23.9-23.9-55.6-37.1-89.5-37.1-69.8 0-126.6 56.7-126.6 126.5zm126.6 126.7q0 0 0 0z"/>
	<path fill-rule="evenodd" class="s2" d="m134.2 6c35.1 0 68 13.7 92.8 38.4 24.7 24.8 38.4 57.8 38.3 92.8 0 72.2-58.8 131.1-131.1 131.1q-8.2 0-16.3-1.1-8.1-1-16.1-3-7.9-2-15.5-5-7.6-3-14.8-6.9l-69.5 18.2 18.6-67.9c-11.5-19.9-17.5-42.4-17.5-65.5 0-72.3 58.8-131.1 131.1-131.1zm-100.7 233.4l41.2-10.8 4 2.3c16.7 10 35.9 15.2 55.5 15.2 60.1 0 109-48.9 109-108.9 0-29.1-11.3-56.5-31.9-77.1-20.6-20.6-47.9-31.9-77-32-60.2 0-109 48.9-109.1 109 0 20.6 5.8 40.6 16.7 58l2.6 4.1zm100.7 28.9q0 0 0 0z"/>
	<path fill-rule="evenodd" class="s0" d="m101.5 82.3c-2.5-5.5-5.1-5.6-7.4-5.7-1.9-0.1-4.1-0.1-6.3-0.1-2.2 0-5.7 0.9-8.7 4.1-3 3.3-11.5 11.2-11.5 27.4 0 16.1 11.7 31.7 13.4 33.8 1.6 2.2 22.6 36.4 55.9 49.5 27.7 10.9 33.3 8.7 39.4 8.2 6-0.6 19.3-7.9 22.1-15.6 2.7-7.6 2.7-14.2 1.9-15.6-0.8-1.3-3-2.1-6.3-3.8-3.3-1.6-19.4-9.5-22.4-10.6-3-1.1-5.2-1.7-7.4 1.6-2.1 3.3-8.4 10.7-10.3 12.8-1.9 2.2-3.9 2.5-7.1 0.9-3.3-1.7-13.9-5.1-26.4-16.3-9.7-8.7-16.3-19.4-18.2-22.7-1.9-3.3-0.2-5 1.4-6.7 1.5-1.4 3.3-3.8 5-5.7 1.6-1.9 2.1-3.3 3.2-5.5 1.1-2.2 0.6-4.1-0.2-5.7-0.9-1.6-7.2-17.8-10.1-24.3z"/>
</svg>